<?xml version="1.0" encoding="utf-8"?>
<!-- Generator: Adobe Illustrator 18.0.0, SVG Export Plug-In . SVG Version: 6.00 Build 0)  -->
<!DOCTYPE svg PUBLIC "-//W3C//DTD SVG 1.1//EN" "http://www.w3.org/Graphics/SVG/1.1/DTD/svg11.dtd">
<svg version="1.1" id="Layer_1" xmlns="http://www.w3.org/2000/svg" xmlns:xlink="http://www.w3.org/1999/xlink" x="0px" y="0px"
	 viewBox="0 0 82.7 82.7" enable-background="new 0 0 82.7 82.7" xml:space="preserve">
<rect fill="#325C80" width="82.7" height="82.7"/>
<path fill="#FFFFFF" d="M45.4,47.2c2.2-9,1.9-16.3-0.1-17.2c0,0,0,0,0,0l-0.2,1.3c0,0,0,0,0,0c1.5,0.4,1.2,9.6-0.4,16
	c-1.6,6.4-5.6,14.7-7,13.9l-0.5,1.1c0,0,0.1,0,0.1,0C39.6,63.1,43.2,56.3,45.4,47.2"/>
<path fill="#FFFFFF" d="M47.9,60.2c-4.1-0.1-9.2-2.5-13.5-6.7c-6.6-6.6-8.8-15.1-4.9-19l1,1C27,38.8,28.6,47,34.6,53
	c6.1,6,14.4,7.6,17.8,4.2l1,1C52.1,59.6,50.1,60.2,47.9,60.2"/>
<path fill="#FFFFFF" d="M48.3,33c2.6,0,4.8,0.8,6.2,2.5l-1.1,0.9c-3-3.7-11.5-2.9-18.1,2.5c-6.6,5.4-8.8,13.5-5.8,17.2l-1.1,0.9
	c-3.5-4.3-0.6-12.6,6.6-18.5C39.4,35,44.3,33,48.3,33"/>
<path fill="#FFFFFF" d="M26.1,48.7c-0.8-1,5.3-4.2,14.9-5.7c9.5-1.5,15.7-0.3,15.7,0.9l1.4-0.2c-0.6-3.7-16.6-1.2-17.3-1.1
	c-0.7,0.1-16.7,2.7-16.1,6.4c0,0,0,0,0,0L26.1,48.7C26.1,48.7,26.1,48.7,26.1,48.7"/>
<path fill="#FFFFFF" d="M34.1,54c-0.7,0-1.2-0.5-1.2-1.2c0-0.7,0.5-1.2,1.2-1.2c0.7,0,1.2,0.5,1.2,1.2C35.3,53.4,34.7,54,34.1,54"/>
<path fill="#FFFFFF" d="M34,41c-0.7,0-1.2-0.5-1.2-1.2c0-0.7,0.5-1.2,1.2-1.2c0.7,0,1.2,0.5,1.2,1.2C35.2,40.5,34.7,41,34,41"/>
<path fill="#FFFFFF" d="M43.5,43.3c-0.5,0-0.9-0.4-0.9-0.9c0-0.5,0.4-0.9,0.9-0.9c0.5,0,0.9,0.4,0.9,0.9
	C44.4,42.9,44,43.3,43.5,43.3"/>
<path fill="#FFFFFF" d="M45.5,46.5c-0.7,0-1.2-0.5-1.2-1.2c0-0.7,0.5-1.2,1.2-1.2c0.7,0,1.2,0.5,1.2,1.2
	C46.7,46,46.2,46.5,45.5,46.5"/>
<path fill="#FFFFFF" d="M54.4,35.5c3.5,4.3,0.8,12.7-6.4,18.7c-7.2,5.9-16.2,7.1-19.7,2.9l1.1-0.9c2.1,3.5,11.1,2.5,17.7-3
	c6.6-5.4,9.2-13.9,6.2-16.8L54.4,35.5z"/>
<path fill="#FFFFFF" d="M53.4,58.2l-1-1c3.4-3.4,1.3-11.2-4.8-17.2c-6.1-6-13.9-8-17.3-4.6l-1-1c3.9-3.9,12.7-2,19.3,4.6
	S57.3,54.3,53.4,58.2"/>
<path fill="#FFFFFF" d="M42.1,50.3c2.1-0.3,16.6-3,16-6.7v0l-1.4,0.2v0c0,1.1-5.4,3.6-15,5.1c-9.5,1.5-15,0.8-15.6-0.3l-1.4,0.2
	C25.6,52.6,39.6,50.7,42.1,50.3"/>
<path fill="#FFFFFF" d="M40.5,25.9v-5.5c0-0.5,0.4-0.9,0.9-0.9c0.5,0,0.9,0.4,0.9,0.9v5.5c0,0.5-0.4,0.9-0.9,0.9
	C40.9,26.8,40.5,26.4,40.5,25.9"/>
<path fill="#FFFFFF" d="M50.3,28.9c-0.3-0.2-0.5-0.5-0.5-0.8c0-0.1,0-0.3,0.1-0.4l2.4-5c0.2-0.3,0.5-0.5,0.8-0.5
	c0.1,0,0.3,0,0.4,0.1c0.3,0.2,0.5,0.5,0.5,0.8c0,0.1,0,0.3-0.1,0.4l-2.4,5C51.3,28.8,51,29,50.6,29C50.5,29,50.4,29,50.3,28.9"/>
<path fill="#FFFFFF" d="M32.2,28.9C32,29,31.9,29,31.8,29c-0.3,0-0.7-0.2-0.8-0.5l-2.4-5c-0.1-0.1-0.1-0.3-0.1-0.4
	c0-0.3,0.2-0.7,0.5-0.8c0.1-0.1,0.3-0.1,0.4-0.1c0.3,0,0.7,0.2,0.8,0.5l2.4,5c0.1,0.1,0.1,0.3,0.1,0.4
	C32.7,28.5,32.5,28.8,32.2,28.9"/>
<path fill="#FFFFFF" d="M56.8,34.5c-0.1-0.1-0.1-0.3-0.1-0.5c0-0.3,0.2-0.6,0.4-0.8l4.7-2.9c0.1-0.1,0.3-0.1,0.5-0.1
	c0.3,0,0.6,0.1,0.8,0.4c0.1,0.1,0.1,0.3,0.1,0.5c0,0.3-0.1,0.6-0.4,0.8l-4.7,2.9c-0.1,0.1-0.3,0.1-0.5,0.1
	C57.3,34.9,57,34.8,56.8,34.5"/>
<path fill="#FFFFFF" d="M25.9,34.5c-0.2,0.3-0.5,0.4-0.8,0.4c-0.2,0-0.3,0-0.5-0.1l-4.7-2.9c-0.3-0.2-0.4-0.5-0.4-0.8
	c0-0.2,0-0.3,0.1-0.5c0.2-0.3,0.5-0.4,0.8-0.4c0.2,0,0.3,0,0.5,0.1l4.7,2.9c0.3,0.2,0.4,0.5,0.4,0.8C26,34.2,26,34.4,25.9,34.5"/>
<path fill="#FFFFFF" d="M41.2,51.5c-1,0-1.9-0.8-1.9-1.9c0-1,0.8-1.9,1.9-1.9c1,0,1.9,0.8,1.9,1.9C43,50.6,42.2,51.5,41.2,51.5"/>
<path fill="#FFFFFF" d="M50.2,43.8c-1.1,0-2-0.9-2-2c0-1.1,0.9-2,2-2c1.1,0,2,0.9,2,2C52.3,42.9,51.3,43.8,50.2,43.8"/>
<path fill="#FFFFFF" d="M48,55.6c-1.2,0-2.2-1-2.2-2.2s1-2.2,2.2-2.2c1.2,0,2.2,1,2.2,2.2S49.2,55.6,48,55.6"/>
<path fill="#FFFFFF" d="M38.5,45.5c-1.4,0-2.6-1.1-2.6-2.6c0-1.4,1.1-2.6,2.6-2.6c1.4,0,2.6,1.1,2.6,2.6
	C41.1,44.3,40,45.5,38.5,45.5"/>
<path fill="#FFFFFF" d="M37.8,61.3c-1.8-1-0.8-9.5,0.8-15.9c1.6-6.4,4.8-14.4,6.6-14.1l0.2-1.3c-2.1-0.8-5.9,5.1-8.2,15.2
	c-2.5,10.9-2.3,16.4,0.2,17.2L37.8,61.3C37.8,61.3,37.8,61.3,37.8,61.3"/>
<path fill="#FFFFFF" d="M41.4,30.8c-8.6,0-15.5,7-15.5,15.5c0,8.6,7,15.5,15.5,15.5c8.6,0,15.5-7,15.5-15.5
	C56.9,37.7,50,30.8,41.4,30.8 M41.4,63.2c-9.3,0-16.9-7.6-16.9-16.9c0-9.3,7.6-16.9,16.9-16.9c9.3,0,16.9,7.6,16.9,16.9
	C58.3,55.6,50.7,63.2,41.4,63.2"/>
</svg>
