<?xml version="1.0" encoding="utf-8"?>
<!-- Generator: Adobe Illustrator 19.0.1, SVG Export Plug-In . SVG Version: 6.00 Build 0)  -->
<svg version="1.1" id="Layer_1" xmlns="http://www.w3.org/2000/svg" xmlns:xlink="http://www.w3.org/1999/xlink" x="0px" y="0px"
	 width="158.9px" height="159.5px" viewBox="0 0 158.9 159.5" enable-background="new 0 0 158.9 159.5" xml:space="preserve">
<g>
	<g>
		<circle fill="#00B2EF" cx="79.5" cy="79.5" r="79.5"/>
	</g>
	<g>
		<g>
			<path fill="#FFFFFF" d="M97.8,78.1c-0.5,0-1.1-0.2-1.5-0.6c-0.8-0.8-0.7-2.1,0.1-2.9c26.2-24,27.3-32.8,25.6-35.9
				c-2.9-5.3-18.5-3.6-27.8-1.3c-1.1,0.3-2.2-0.4-2.5-1.5c-0.3-1.1,0.4-2.2,1.5-2.5c0.3-0.1,6.6-1.6,13.7-2.2
				c10.1-0.7,16.4,1.1,18.8,5.5c4.1,7.6-4.3,20.6-26.4,40.9C98.8,77.9,98.3,78.1,97.8,78.1z"/>
			<path fill="#FFFFFF" d="M32.5,113.7c-3.4,0-5.2-1.1-6.3-2.3c-5.9-6.6,6-23.5,8.4-26.9l3.3,2.4c-6,8.3-11.1,18.9-8.6,21.7
				c1.1,1.3,7.2,4.1,38.2-13.2l2,3.6C49,110.4,38.3,113.7,32.5,113.7z"/>
			<path fill="#FFFFFF" d="M121.2,93.6c-10.3,0-29.4-3.1-64.6-12.7l1.1-4c65,17.7,71.3,12,71.9,10.7c0.9-1.9-4.5-8.3-13.5-14.5
				l2.3-3.4c4.3,2.9,18.1,12.9,15,19.6C132.2,91.6,129.5,93.6,121.2,93.6z"/>
			<circle fill="#FFFFFF" cx="60.3" cy="78.8" r="5.3"/>
			<circle fill="#FFFFFF" cx="68.5" cy="96.8" r="5.3"/>
		</g>
		<path fill="none" d="M79.5,0.6C35.6,0.6,0,36.2,0,80s35.6,79.5,79.5,79.5s79.5-35.6,79.5-79.5S123.3,0.6,79.5,0.6z M118.8,72.1
			c0,23.8-19.2,43-43,43s-43-19.2-43-43s19.2-43,43-43S118.8,48.3,118.8,72.1z"/>
	</g>
	<g>
		<path fill="#00649D" d="M73.7,30c-23.2,1.2-41.1,21-39.9,44.2s21,41.1,44.2,39.9s41.1-21,39.9-44.2C116.7,46.7,96.9,28.8,73.7,30z
			 M91.3,84L77.9,72l23.2-25.7C103.5,60.2,100,73.7,91.3,84z M60.3,60.1l13.4,12.1L50.5,97.9C48.1,84,51.6,70.4,60.3,60.1z
			 M62.3,57.9c8-8.2,18.8-13.1,30.7-13.7c1.9-0.1,3.9-0.1,5.9,0.1L75.7,70L62.3,57.9z M75.9,74.2l13.4,12.1
			c-8,8.2-18.8,13.1-30.7,13.7c-1.9,0.1-3.9,0.1-5.9-0.1L75.9,74.2z M99.9,41.3c-2.3-0.2-4.8-0.2-7.1-0.1
			C80.1,41.8,68.6,47,60.1,55.8L47.8,44.7c6.6-6.8,15.8-11.3,26-11.8C83.6,32.5,92.7,35.7,99.9,41.3z M36.7,74.1
			c-0.5-10.3,3-19.8,9.1-27l12.3,11.1c-9.4,11.1-13.2,26.2-10.4,41.1C41.3,92.7,37.2,83.9,36.7,74.1z M51.7,102.9
			c2.3,0.2,4.8,0.2,7.1,0.1l0,0c12.7-0.6,24.3-5.9,32.8-14.7l12.3,11.1c-6.6,6.8-15.8,11.3-26,11.8C68,111.7,58.8,108.5,51.7,102.9z
			 M105.8,97.1L93.5,86c9.4-11.1,13.2-26.2,10.4-41.1c6.3,6.6,10.4,15.4,10.9,25.2C115.4,80.3,111.9,89.8,105.8,97.1z"/>
		<path fill="#00649D" d="M75.8,115.1L75.8,115.1c-22.9,0-41.8-17.9-42.9-40.8c-0.6-11.5,3.3-22.5,11-31s18.2-13.5,29.7-14.1
			c0.8-0.1,1.5-0.1,2.2-0.1c22.9,0,41.8,17.9,42.9,40.8c1.2,23.7-17.1,43.9-40.8,45.2C77.2,115.1,76.5,115.1,75.8,115.1z M75.8,30.8
			c-0.7,0-1.4,0-2.1,0.1c-11,0.6-21.1,5.4-28.5,13.5S34.1,63.2,34.7,74.1c1.1,21.9,19.2,39.2,41.2,39.2l0,0c0.7,0,1.4,0,2.1-0.1
			c22.7-1.2,40.3-20.6,39.1-43.3C115.9,48,97.8,30.8,75.8,30.8z M75.8,112.1c-8.9,0-17.7-3-24.6-8.6l-2.1-1.6l0,0l-0.2-0.2h0.1
			L47,99.8c-6.7-7-10.7-16.1-11.2-25.7c-0.5-10.1,2.8-19.9,9.3-27.7l0.6-0.7l13.6,12.3l-0.5,0.6c-9.2,10.9-13,25.6-10.2,40.4
			l0.5,2.7l2.8,0.2c2.3,0.2,4.7,0.2,7,0.1c12.4-0.6,23.9-5.7,32.2-14.4l0.6-0.6l13.6,12.3l-0.6,0.6c-7,7.3-16.5,11.6-26.6,12
			C77.2,112.1,76.5,112.1,75.8,112.1z M54.6,103.9c6.3,4.2,13.5,6.5,21.2,6.5c0.6,0,1.3,0,2-0.1c9.3-0.5,18.1-4.3,24.7-10.8l-11-9.9
			c-8.6,8.6-20.2,13.7-32.8,14.3C57.4,103.9,56,103.9,54.6,103.9z M45.9,48.3c-5.8,7.3-8.7,16.4-8.3,25.7c0.4,8.2,3.5,16.1,8.7,22.4
			c-1.8-14,1.9-27.7,10.5-38.2L45.9,48.3z M56.1,100.9c-1.1,0-2.3-0.1-3.5-0.1l-1.8-0.1l25-27.7l14.7,13.3l-0.6,0.6
			c-8.1,8.4-19.2,13.3-31.3,14C57.8,100.9,56.9,100.9,56.1,100.9z M54.6,99.1c1.3,0.1,2.6,0,3.9-0.1c11.3-0.6,21.8-5.1,29.4-12.8
			l-12-10.8L54.6,99.1z M49.9,99.8l-0.3-1.8c-2.5-14.3,1.1-27.9,10-38.5l0.6-0.7l14.7,13.3L49.9,99.8z M60.4,61.4
			c-7.8,9.6-11.1,21.8-9.3,34.5l21.3-23.7L60.4,61.4z M105.9,98.4L92.3,86.1l0.5-0.6c9.2-10.9,13-25.6,10.2-40.4l-0.5-2.7l-2.8-0.2
			c-2.3-0.2-4.7-0.2-7-0.1c-12.4,0.6-23.9,5.7-32.2,14.4L60,57.1L46.4,44.8l0.6-0.6c7-7.3,16.5-11.6,26.6-12
			c0.7-0.1,1.3-0.1,2.1-0.1c9,0,17.5,2.9,24.6,8.6l2.1,1.6v-0.1l0.2,0.2h-0.1l1.8,1.9c6.7,7,10.7,16.1,11.2,25.7
			c0.5,10.1-2.8,19.9-9.3,27.7L105.9,98.4z M94.8,86l11,9.9c5.8-7.3,8.7-16.4,8.3-25.7c-0.4-8.2-3.5-16.1-8.7-22.4
			C107.1,61.8,103.3,75.5,94.8,86z M49.1,44.7l11,9.9C68.6,46,80.2,41,92.8,40.3c1.4-0.1,2.8-0.1,4.2-0.1
			c-6.3-4.2-13.5-6.5-21.2-6.5c-0.6,0-1.3,0-2,0.1C64.5,34.4,55.8,38.2,49.1,44.7z M91.4,85.3L76.6,72l25-27.7l0.3,1.8
			c2.5,14.3-1.1,27.9-10,38.5L91.4,85.3z M79.2,71.9l12,10.8c7.8-9.6,11.1-21.8,9.3-34.5L79.2,71.9z M75.8,71.2L61,57.9l0.6-0.6
			c8.1-8.4,19.2-13.3,31.3-14c1.9-0.1,4-0.1,6,0.1l1.8,0.1L75.8,71.2z M63.6,57.8l12,10.8L96.9,45c-1.3-0.1-2.6,0-3.9,0.1
			C81.7,45.6,71.3,50.2,63.6,57.8z"/>
	</g>
	<g>
		<g>
			<path fill="#00649D" d="M103.2,44.6c7.7,6.9,12.3,17.1,12.3,29.1c0,9.3-2.7,16.9-7.9,23.8c-4.4,5.8-16.2,22.5-27.3,33.1v-16.9
				c0,0-1.2-1.8-1.6-1.8c-10.8,0-20.3-3.8-27.3-10.1"/>
			<path fill="#00649D" d="M79.6,132.5v-18.7c-0.4-0.5-0.9-1-1.1-1.2c-10.7-0.1-20.5-3.7-27.8-10.3l1.2-1.3c7,6.4,16.5,9.9,26.8,9.9
				c0.2,0,0.9,0,2.5,2.1l0.2,0.2v15.2c8.7-8.6,17.4-20.4,22.8-27.6c1.2-1.5,2.1-2.9,2.9-3.9c5.1-6.7,7.6-14.3,7.6-23.2
				c0-11.4-4.3-21.5-12-28.4l1.2-1.3c8.1,7.3,12.5,17.8,12.5,29.8c0,9.3-2.6,17.2-8,24.3c-0.8,1-1.7,2.3-2.9,3.9
				c-5.7,7.7-15.1,20.5-24.4,29.3L79.6,132.5z"/>
		</g>
		<g>
			<g>
				<path fill="#00649D" d="M104.4,43.2c8.2,7.4,13.3,18.1,13.3,30.1c0,9.3-3.5,17.8-8.7,24.6c-4.4,5.8-20.6,26-31.1,36.5v-20.6
					c0,0-0.6,0-1.2,0c-10.5,0-19.9-4-27.2-10.6"/>
				<path fill="#00649D" d="M77.3,136.5v-21.8c-0.1,0-0.3,0-0.4,0c-10.3,0-20.2-3.8-27.8-10.8l1.2-1.3c7.3,6.6,16.8,10.3,26.6,10.3
					c0.5,0,1.3,0,1.3,0l0.9-0.1v19.4C90,121,104.9,102,108.5,97.3c5.5-7.2,8.3-15.5,8.3-24c0-11.2-4.8-21.9-13-29.4l1.2-1.3
					c8.6,7.9,13.6,19.1,13.6,30.7c0,9-3,17.7-8.7,25.1c-3.8,4.9-20.1,25.6-31.1,36.6L77.3,136.5z"/>
			</g>
		</g>
	</g>
	<g>
		<path fill="#FFFFFF" d="M97.9,78.1c-0.5,0-1.1-0.2-1.5-0.6c-0.8-0.8-0.7-2.1,0.1-2.9c25.6-23.5,27.2-32.4,25.8-35.7
			c-1.1-2.8-5.8-4.1-13.2-3.8c-1.1,0.1-2.1-0.8-2.1-2c-0.1-1.1,0.8-2.1,2-2.1c9.5-0.4,15.2,1.8,17.2,6.3c3.2,7.7-5.3,20.5-26.8,40.2
			C98.9,77.9,98.3,78.1,97.9,78.1z"/>
		<path fill="#FFFFFF" d="M32.5,113.7c-3.2,0-4.9-0.9-6-2.1c-3.2-3.1-2.5-8.9,2.2-17.7l3.6,1.9c-3.4,6.5-4.5,11.2-2.9,12.8
			c0.6,0.6,2.8,1.8,9.7-0.2c6.7-1.9,16.3-6.3,28.4-13l2,3.6C48.9,110.4,38.3,113.7,32.5,113.7z"/>
		<path fill="#FFFFFF" d="M121.2,93.6c-12,0-33.3-4.2-64.6-12.7l1.1-4c46.9,12.7,63.7,13.5,69.6,12l1.1,4
			C126.5,93.4,124.1,93.6,121.2,93.6z"/>
		<circle fill="#FFFFFF" cx="60.3" cy="78.8" r="5.3"/>
		<circle fill="#FFFFFF" cx="68.6" cy="96.8" r="5.3"/>
	</g>
</g>
</svg>
